<svg width="49" height="37" viewBox="0 0 49 37" fill="none" xmlns="http://www.w3.org/2000/svg">
<path fill-rule="evenodd" clip-rule="evenodd" d="M1.11354 19.5882C0.49855 19.5882 -7.81057e-07 19.101 -8.07283e-07 18.4999C-8.3351e-07 17.8989 0.49855 17.4117 1.11354 17.4117L45.8899 17.4117L29.9743 1.85774C29.5394 1.43275 29.5394 0.74372 29.9743 0.318736C30.4091 -0.106244 31.1142 -0.106244 31.5491 0.318736L48.1846 16.5762C49.2718 17.6387 49.2718 19.3613 48.1846 20.4237L31.549 36.6813C31.1142 37.1062 30.4091 37.1062 29.9742 36.6813C29.5394 36.2563 29.5394 35.5672 29.9742 35.1423L45.89 19.5882L1.11354 19.5882Z" fill="#FFB839"/>
</svg>
