<?xml version="1.0" encoding="utf-8"?>
<!-- Generator: Adobe Illustrator 23.0.5, SVG Export Plug-In . SVG Version: 6.00 Build 0)  -->
<svg version="1.1" xmlns="http://www.w3.org/2000/svg" xmlns:xlink="http://www.w3.org/1999/xlink" x="0px" y="0px"
	 viewBox="0 0 36 43" style="enable-background:new 0 0 36 43;" xml:space="preserve">
<style type="text/css">
	.st0{fill:#FFB839;}
	.st1{fill:#FFFFFF;}
</style>
<g id="Relleno">
	<path class="st0" d="M18,21.9c2.4,0,4.3-2,4.3-4.4c0-2.4-1.9-4.4-4.3-4.4s-4.3,2-4.3,4.4C13.7,19.9,15.6,21.9,18,21.9z M18,0
		c9,0,17.2,7,17.2,17.9c0,6.9-5.3,15.1-15.8,24.5c-0.8,0.7-2,0.7-2.9,0C6.1,33.1,0.8,24.9,0.8,18C0.8,7.1,9,0,18,0z"/>
</g>
<g id="Borde">
	<g>
		<path class="st1" d="M18,43c-0.5,0-1-0.2-1.4-0.5c-5.2-4.7-9.2-9.1-11.8-13.2C2.1,25.2,0.8,21.4,0.8,18C0.8,6.3,9.7,0,18,0
			S35.2,6.3,35.2,18c0,3.5-1.3,7.3-3.9,11.3c-2.6,4.1-6.6,8.5-11.8,13.2C19,42.9,18.5,43,18,43z M18,1.3C10.3,1.3,2,7.1,2,18
			c0,3.2,1.3,6.8,3.8,10.7c2.6,4,6.5,8.3,11.6,12.9c0.3,0.3,0.9,0.3,1.2,0c5.1-4.6,9.1-9,11.6-12.9C32.7,24.8,34,21.2,34,18
			C34,7.1,25.7,1.3,18,1.3z M18,23.1c-3,0-5.5-2.5-5.5-5.6s2.5-5.6,5.5-5.6s5.5,2.5,5.5,5.6S21,23.1,18,23.1z M18,13.1
			c-2.4,0-4.3,2-4.3,4.4s1.9,4.4,4.3,4.4s4.3-2,4.3-4.4S20.4,13.1,18,13.1z"/>
	</g>
</g>
</svg>
