<?xml version="1.0" standalone="no"?>
<!DOCTYPE svg PUBLIC "-//W3C//DTD SVG 20010904//EN"
 "http://www.w3.org/TR/2001/REC-SVG-20010904/DTD/svg10.dtd">
<svg version="1.0" xmlns="http://www.w3.org/2000/svg"
 width="34.000000pt" height="42.000000pt" viewBox="0 0 34.000000 42.000000"
 preserveAspectRatio="xMidYMid meet">

<g transform="translate(0.000000,42.000000) scale(0.100000,-0.100000)"
fill="#000000" stroke="none">
<path d="M95 400 c-50 -25 -86 -77 -92 -135 -4 -35 0 -56 20 -98 25 -51 128
-167 147 -167 20 0 120 113 144 162 41 82 31 153 -30 210 -56 52 -122 61 -189
28z m105 -125 c7 -8 10 -25 6 -40 -5 -20 -13 -25 -36 -25 -23 0 -31 5 -36 25
-7 29 10 55 36 55 10 0 23 -7 30 -15z"/>
</g>
</svg>
