<svg width="238" height="19" viewBox="0 0 238 19" fill="none" xmlns="http://www.w3.org/2000/svg">
<path d="M45.0002 3.37012V14.8301H43.1602V3.37012H45.0002Z" fill="black"/>
<path d="M60.4706 3.36998V15.24H60.4206L52.1606 7.22998L52.2106 14.83H50.3506V2.97998H50.4406L58.6706 11.08L58.6406 3.36998H60.4706Z" fill="black"/>
<path d="M72.6798 3.37012V5.13012H69.7198V14.8301H67.8898V5.13012H65.0098V3.37012H72.6698H72.6798Z" fill="black"/>
<path d="M84.81 3.37012V5.13012H79.05V8.18012H84.18V9.94012H79.05V13.0601H85.03V14.8201H77.21V3.37012H84.81Z" fill="black"/>
<path d="M96.0305 14.8301L93.4505 10.8501H91.6105V14.8301H89.7705V3.37012H93.0005C94.2805 3.37012 95.3105 3.70012 96.0805 4.35012C96.8505 5.00012 97.2405 5.90012 97.2405 7.06012C97.2405 7.76012 97.0905 8.42012 96.7905 9.02012C96.4905 9.62012 96.0205 10.0901 95.3805 10.4101L98.1705 14.8301H96.0505H96.0305ZM91.6105 9.09012H93.2505C93.9805 9.09012 94.5205 8.89012 94.8505 8.48012C95.1805 8.08012 95.3505 7.62012 95.3505 7.12012C95.3505 6.83012 95.2905 6.53012 95.1605 6.23012C95.0305 5.93012 94.8205 5.67012 94.5105 5.46012C94.2105 5.25012 93.8105 5.14012 93.3105 5.14012H91.6105V9.09012Z" fill="black"/>
<path d="M104.35 3.37012V14.8301H102.51V3.37012H104.35Z" fill="black"/>
<path d="M119.82 3.36998V15.24H119.77L111.51 7.22998L111.56 14.83H109.7V2.97998H109.79L118.02 11.08L117.99 3.36998H119.82Z" fill="black"/>
<path d="M134.46 3.37012L129.33 15.3601L124.2 3.37012H126.39L129.41 10.8901L132.31 3.37012H134.47H134.46Z" fill="black"/>
<path d="M146.42 3.37012V5.13012H140.66V8.18012H145.79V9.94012H140.66V13.0601H146.64V14.8201H138.82V3.37012H146.42Z" fill="black"/>
<path d="M154.76 4.93006C154.19 4.93006 153.75 5.06006 153.41 5.31006C153.08 5.56006 152.91 5.91006 152.91 6.35006C152.91 6.79006 153.12 7.14006 153.53 7.43006C153.94 7.72006 154.52 8.00006 155.27 8.29006C155.84 8.49006 156.32 8.72006 156.73 8.97006C157.13 9.23006 157.47 9.58006 157.73 10.0201C157.99 10.4601 158.12 11.0201 158.12 11.6901C158.12 12.3001 157.97 12.8501 157.66 13.3401C157.36 13.8301 156.91 14.2301 156.34 14.5201C155.76 14.8101 155.08 14.9601 154.29 14.9601C153.6 14.9601 152.92 14.8501 152.24 14.6401C151.57 14.4301 150.97 14.1301 150.45 13.7501L151.27 12.3201C151.66 12.6101 152.12 12.8601 152.65 13.0501C153.18 13.2401 153.67 13.3401 154.12 13.3401C154.68 13.3401 155.16 13.2101 155.58 12.9401C156 12.6701 156.21 12.2601 156.21 11.7001C156.21 11.2601 156.03 10.8901 155.68 10.6001C155.33 10.3101 154.84 10.0401 154.21 9.80006C153.56 9.56006 153.02 9.32006 152.59 9.08006C152.16 8.84006 151.79 8.51006 151.48 8.09006C151.17 7.67006 151.02 7.13006 151.02 6.49006C151.02 5.56006 151.34 4.80006 151.97 4.23006C152.6 3.66006 153.44 3.35006 154.48 3.31006C155.24 3.31006 155.9 3.40006 156.47 3.57006C157.04 3.74006 157.57 3.99006 158.07 4.30006L157.38 5.70006C156.39 5.19006 155.52 4.93006 154.75 4.93006H154.76Z" fill="black"/>
<path d="M169.53 3.37012V5.13012H166.57V14.8301H164.74V5.13012H161.86V3.37012H169.52H169.53Z" fill="black"/>
<path d="M185.631 2.95996V14.83H183.801V8.19996L179.791 13.9H179.761L175.841 8.46996V14.83H174.061V2.95996H174.081L179.791 11.05L185.601 2.95996H185.631Z" fill="black"/>
<path d="M198.58 3.37012V5.13012H192.82V8.18012H197.95V9.94012H192.82V13.0601H198.8V14.8201H190.98V3.37012H198.58Z" fill="black"/>
<path d="M213.66 3.36998V15.24H213.61L205.35 7.22998L205.4 14.83H203.54V2.97998H203.63L211.86 11.08L211.83 3.36998H213.66Z" fill="black"/>
<path d="M225.87 3.37012V5.13012H222.91V14.8301H221.08V5.13012H218.2V3.37012H225.86H225.87Z" fill="black"/>
<path d="M233.79 4.93006C233.22 4.93006 232.78 5.06006 232.44 5.31006C232.11 5.56006 231.94 5.91006 231.94 6.35006C231.94 6.79006 232.15 7.14006 232.56 7.43006C232.97 7.72006 233.55 8.00006 234.3 8.29006C234.87 8.49006 235.35 8.72006 235.76 8.97006C236.16 9.23006 236.5 9.58006 236.76 10.0201C237.02 10.4601 237.15 11.0201 237.15 11.6901C237.15 12.3001 237 12.8501 236.69 13.3401C236.39 13.8301 235.95 14.2301 235.37 14.5201C234.79 14.8101 234.11 14.9601 233.32 14.9601C232.63 14.9601 231.95 14.8501 231.27 14.6401C230.6 14.4301 230 14.1301 229.48 13.7501L230.3 12.3201C230.69 12.6101 231.15 12.8601 231.68 13.0501C232.21 13.2401 232.7 13.3401 233.15 13.3401C233.71 13.3401 234.19 13.2101 234.61 12.9401C235.03 12.6701 235.24 12.2601 235.24 11.7001C235.24 11.2601 235.06 10.8901 234.71 10.6001C234.36 10.3101 233.87 10.0401 233.24 9.80006C232.59 9.56006 232.05 9.32006 231.62 9.08006C231.19 8.84006 230.82 8.51006 230.51 8.09006C230.2 7.67006 230.05 7.13006 230.05 6.49006C230.05 5.56006 230.37 4.80006 231 4.23006C231.63 3.66006 232.47 3.35006 233.51 3.31006C234.27 3.31006 234.93 3.40006 235.5 3.57006C236.07 3.74006 236.6 3.99006 237.1 4.30006L236.41 5.70006C235.42 5.19006 234.55 4.93006 233.78 4.93006H233.79Z" fill="black"/>
<path d="M31.71 7.93C31.71 3.57 28.19 0.04 23.85 0H7.93V9.17H0V18.33H7.93V9.17H15.85V18.32H31.7L29.56 13.33C30.88 11.91 31.7 10.02 31.7 7.92L31.71 7.93Z" fill="black"/>
</svg>
